<svg version="1.1" width="1600" height="1000" xmlns="http://www.w3.org/2000/svg">  

    <!--
        PicnicScene
        Author: Matthew Merritt, Michael Merritt, Harsh Gandhi
        Fall 24: CSC345/CSC645

        SVG implementation of the picnic scene.
    -->

    <!-- background -->
    <!-- sky -->
    <rect x="0" y="0" width="1600" height="500" fill="#87CEFA" />
    <!-- grass -->
    <rect x="0" y="500" width="1600" height="500" fill="#75E100" />

    <!-- lake -->
    <!-- 
        To draw the lake, a path is used that begins at the center of the lake ellipse,
        then moves to the left edge of the ellipse of the lake,
        then draws the bottom arc with radii (600, 250) to the right edge,
        then closes the path.
     -->
    <path d="M 800 500
             h -600 
             a 600 250 0 0 0 1200 0
             Z" 
        fill="#000EFF" />

    <!-- sun -->
    <circle cx="1100" cy="0" r="150" fill="#FFFF00" fill-opacity="0.2" />
    <circle cx="1100" cy="0" r="125" fill="#FFFF00" fill-opacity="0.3" />
    <circle cx="1100" cy="0" r="100" fill="#FFFF00" fill-opacity="0.4" />
    <circle cx="1100" cy="0" r="75" fill="#FFFF00" fill-opacity="0.5" />
    <circle cx="1100" cy="0" r="50" fill="#FFFF00" fill-opacity="1" />

    <!-- bird -->
    <!-- 
        To draw the bird, a path is used with two bezier curves and rounded caps and joins.
        To normalize the coordinates, a translation is used to center the coordinate system
        on the middle of the bird.
     -->
    <path d="M 0 0
             c 5 -10 15 -10 20 -5
             M 0 0
             c -5 -10 -15 -10 -20 -5"
        fill="transparent"
        stroke="#000000"
        stroke-width="3"
        stroke-linejoin="round"
        stroke-linecap="round"
        transform="translate(800, 250)" />

    <!-- blanket -->
    <!-- 
        To achive the parallelogram shape, a rectangle is skewed along the x dimension.
        The skewX matrix is very similar to the shear transformation matrix, but the value of a
        is replaced by tan(theta), with theta being the skew angle.

        Thus, to compute our shear(1.25, 0) using skewX, we simply need theta = tan-1(1.25), or
        roughly 51 degrees. The skew is done as a negative angle to account for the reversed y-coordinates.
     -->
    <rect x="0" y="0" width="225" height="200" 
        transform="translate(1125, 750) skewX(-51)" 
        fill="#CFB997" />
    <!-- apple on blanket -->
    <circle cx="-40" cy="70" r="5" 
        fill="#FF0000"
        transform="translate(1125, 750)"  />
    <!-- basket on blanket -->
    <rect x="100" y="-25" width="70" height="50" 
        fill="#5C4D39"
        transform="translate(1125, 750)"  />
    <!-- handle on basket, done as a circle for simplicity -->
    <circle cx="135" cy="-25" r="25" 
        fill="transparent" 
        stroke="#5C4D39" 
        stroke-width="5" 
        transform="translate(1125, 750)"/>

    <!-- person on blanket -->
    <!-- Note that this person will be similar to the people on the seesaw -->
    <!-- person's body -->
    <path d="M 0 -150 
             L 0 0
             L -75 75
             L 0 150
             M 0 -125
             L -75 -25
             "
        fill="transparent"
        stroke="#000000"
        stroke-width="10"
        stroke-linejoin="miter"
        stroke-linecap="square"
        transform="translate(1100, 875) scale(0.35) rotate(45)" />
    <!-- person's head -->
    <circle cx="0" cy="-225" r="75" 
        fill="#FFFFFF"
        stroke="#000000"
        stroke-width="10"
        transform="translate(1100, 875) scale(0.35) rotate(45)" />

    <!-- left tree trunk -->
    <path d="M -50 -200
             L -50 -150
             C -50 200 -100 200 -100 200
             L -25 175
             L 15 225
             L 40 175
             L 100 200
             C 100 200 50 200 50 -150
             L 50 -200
             Z
            "
        fill = "#533510"
        transform="translate(200, 700)" />

    <!-- left tree leaves -->
    <circle cx="0" cy="-220" r="150" transform="translate(200, 700)" fill="#3A5F11" />

    <!-- right tree trunk -->
    <path d="M -50 -200
             L -50 -150
             C -50 200 -100 200 -100 200
             L -25 175
             L 15 225
             L 40 175
             L 100 200
             C 100 200 50 200 50 -150
             L 50 -200
             Z
            "
        fill = "#533510"
        transform="translate(1400, 700)" />

    <!-- right tree leaves -->
    <circle cx="0" cy="-220" r="150" transform="translate(1400, 700)" fill="#3A5F11" />


    <!-- seesaw -->
    <!-- 
        Since it is not animated, the angle of the seesaw is 
        PI/12 or 15 degrees, which was the largest angle the animated 
        one reached. 

        The points in the person's arms and legs are manually computed to account
        for this angle, using the same logic as the Java version.
     -->

    <!-- seesaw base -->
    <polygon points="100 0 -100 0 0 -150" 
        fill="#3A5F0B" 
        transform="translate(443, 950) scale(0.75)" />
    <!-- seesaw bar -->
    <rect x="-300" y="-10" width="600" height="20"
        fill="#C800C8" 
        transform="translate(443, 950) scale(0.75) translate(0, -150)  rotate(15)" />

    <!-- right seesaw person's body -->
    <!-- 
        This person is too close to the ground, so the legs will bend.
        This affects the coordinates in line 3 and 4 of the path. 
        The calculations are the following:
        
        Line 3 X: -sqrt( (0.8^2+0.2^2)^2 - (-(2.5 * sin(15 degrees) - 1.5)/2)^2 ) 
        Line 3 Y: (-(2.5 * sin(15 degrees)) - 1.5)/2

        Line 4 X: 0
        Line 4 Y: -(2.5 * sin(15 degrees)) - 1.5
     -->
    <path d="M 0 -150 
             L 0 0
             L -53 43
             L 0 85
             M 0 -125
             L -50 -13
             "
        fill="transparent"
        stroke="#000000"
        stroke-width="10"
        stroke-linejoin="miter"
        stroke-linecap="square"
        transform="translate(443, 950) scale(0.75) translate(0, -150)  rotate(15) translate(250, 0) rotate(-15)" />
    <!-- right seesaw person's head -->
    <circle cx="0" cy="-225" r="75" 
        fill="#FFFFFF"
        stroke="#000000"
        stroke-width="10"
        transform="translate(443, 950) scale(0.75) translate(0, -150)  rotate(15) translate(250, 0) rotate(-15)" />

    <!-- left seesaw person's body -->
    <!-- 
        This person is well above the ground, and the legs do not need to bend past the set values
        for an animated person.
     -->
    <path d="M 0 -150 
             L 0 0
             L 20 80
             L 0 160
             M 0 -125
             L 50 13
             "
        fill="transparent"
        stroke="#000000"
        stroke-width="10"
        stroke-linejoin="miter"
        stroke-linecap="square"
        transform="translate(443, 950) scale(0.75) translate(0, -150)  rotate(15) translate(-250, 0) rotate(-15)" />
    <!-- left seesaw person's head -->
    <circle cx="0" cy="-225" r="75" 
        fill="#FFFFFF"
        stroke="#000000"
        stroke-width="10"
        transform="translate(443, 950) scale(0.75) translate(0, -150)  rotate(15) translate(-250, 0) rotate(-15)" />
</svg>